<svg width="23" height="23" viewBox="0 0 23 23" fill="none" xmlns="http://www.w3.org/2000/svg">
<g clip-path="url(#clip0_1126_7776)">
<rect width="22.7478" height="22.7478" fill="black"/>
<path d="M20.1704 17.4627C19.8407 18.2243 19.4505 18.9254 18.9984 19.57C18.3821 20.4487 17.8774 21.0569 17.4886 21.3946C16.8857 21.949 16.2398 22.233 15.5481 22.2491C15.0516 22.2491 14.4528 22.1078 13.7558 21.8212C13.0564 21.5359 12.4138 21.3946 11.8261 21.3946C11.2098 21.3946 10.5488 21.5359 9.84183 21.8212C9.13376 22.1078 8.56334 22.2572 8.12722 22.272C7.46396 22.3003 6.80284 22.0082 6.14294 21.3946C5.72176 21.0273 5.19494 20.3975 4.56384 19.5054C3.88671 18.5527 3.33002 17.4479 2.8939 16.1884C2.42683 14.8279 2.19269 13.5105 2.19269 12.2352C2.19269 10.7742 2.50837 9.51414 3.14069 8.45822C3.63763 7.61006 4.29875 6.94101 5.12618 6.44985C5.95361 5.9587 6.84765 5.70841 7.81046 5.6924C8.33728 5.6924 9.02813 5.85535 9.88664 6.17561C10.7427 6.49695 11.2924 6.65991 11.5334 6.65991C11.7136 6.65991 12.3243 6.46937 13.3595 6.08949C14.3384 5.73721 15.1646 5.59134 15.8415 5.6488C17.6756 5.79682 19.0535 6.51983 19.9699 7.8224C18.3296 8.81629 17.5182 10.2084 17.5343 11.9941C17.5491 13.3851 18.0537 14.5427 19.0455 15.4617C19.4949 15.8883 19.9968 16.218 20.5553 16.4521C20.4342 16.8033 20.3063 17.1397 20.1704 17.4627V17.4627ZM15.9639 0.910001C15.9639 2.00025 15.5656 3.01821 14.7717 3.96043C13.8136 5.08053 12.6548 5.72779 11.3981 5.62565C11.3821 5.49486 11.3728 5.3572 11.3728 5.21254C11.3728 4.1659 11.8284 3.0458 12.6375 2.12996C13.0415 1.66625 13.5553 1.28068 14.1783 0.973111C14.8 0.670127 15.388 0.50257 15.9411 0.473877C15.9572 0.619626 15.9639 0.765384 15.9639 0.909987V0.910001Z" fill="white"/>
</g>
<defs>
<clipPath id="clip0_1126_7776">
<rect width="22.7478" height="22.7478" fill="white"/>
</clipPath>
</defs>
</svg>
