<svg width="23" height="23" viewBox="0 0 23 23" fill="none" xmlns="http://www.w3.org/2000/svg">
<rect width="22.7478" height="22.7478" fill="white"/>
<path fill-rule="evenodd" clip-rule="evenodd" d="M21.8379 11.6219C21.8379 10.849 21.7685 10.1058 21.6397 9.39233H11.3739V13.6087H17.2401C16.9874 14.9712 16.2194 16.1256 15.065 16.8985V19.6334H18.5877C20.6488 17.7358 21.8379 14.9414 21.8379 11.6219Z" fill="#4285F4"/>
<path fill-rule="evenodd" clip-rule="evenodd" d="M11.3738 22.2738C14.3168 22.2738 16.7842 21.2978 18.5876 19.6331L15.065 16.8981C14.0889 17.5521 12.8404 17.9386 11.3738 17.9386C8.53486 17.9386 6.13191 16.0212 5.27477 13.4448H1.63318V16.2689C3.42672 19.8312 7.11291 22.2738 11.3738 22.2738Z" fill="#34A853"/>
<path fill-rule="evenodd" clip-rule="evenodd" d="M5.27483 13.4451C5.05683 12.7911 4.93297 12.0925 4.93297 11.3741C4.93297 10.6557 5.05683 9.95709 5.27483 9.30309V6.479H1.63324C0.895013 7.9505 0.473877 9.61523 0.473877 11.3741C0.473877 13.133 0.895013 14.7977 1.63324 16.2692L5.27483 13.4451Z" fill="#FBBC05"/>
<path fill-rule="evenodd" clip-rule="evenodd" d="M11.3738 4.80935C12.9741 4.80935 14.411 5.3593 15.5406 6.43939L18.6669 3.31308C16.7792 1.55421 14.3119 0.474121 11.3738 0.474121C7.11291 0.474121 3.42672 2.91671 1.63318 6.47903L5.27477 9.30312C6.13191 6.72676 8.53486 4.80935 11.3738 4.80935Z" fill="#EA4335"/>
</svg>
